<svg xmlns="http://www.w3.org/2000/svg" viewBox="0 0 64 116" width="64" height="116">
  <!-- Body drawn FIRST so it sits behind the head -->
  <ellipse cx="32" cy="90" rx="13" ry="21" fill="#2255cc"/>
  <ellipse cx="32" cy="92" rx="7" ry="14" fill="#4477ee"/>
  <ellipse cx="32" cy="90" rx="9" ry="15" fill="none" stroke="#1a44aa" stroke-width="1" opacity="0.4"/>
  <!-- Neck -->
  <rect x="23" y="50" width="18" height="14" rx="6" fill="#2255cc"/>
  <!-- Hood -->
  <ellipse cx="32" cy="20" rx="26" ry="13" fill="#2255cc"/>
  <ellipse cx="32" cy="20" rx="20" ry="9" fill="#3366ee"/>
  <ellipse cx="32" cy="20" rx="10" ry="6" fill="#1a44aa" opacity="0.5"/>
  <!-- Head drawn LAST so it sits on top -->
  <ellipse cx="32" cy="38" rx="16" ry="17" fill="#2255cc"/>
  <circle cx="24" cy="34" r="5" fill="#ffee00"/>
  <circle cx="40" cy="34" r="5" fill="#ffee00"/>
  <circle cx="24" cy="34" r="2.5" fill="#111"/>
  <circle cx="40" cy="34" r="2.5" fill="#111"/>
  <polygon points="26,52 22,62 28,55" fill="white"/>
  <polygon points="38,52 42,62 36,55" fill="white"/>
  <path d="M 22 51 Q 32 57 42 51" stroke="#1a3a88" stroke-width="2" fill="none"/>
  <path d="M 30 57 L 28 63 M 34 57 L 36 63" stroke="#ff3333" stroke-width="2" fill="none"/>
</svg>
